<svg width="133" height="20" viewBox="0 0 133 20" fill="none" xmlns="http://www.w3.org/2000/svg">
<path d="M10.7709 4.44V15H9.04288V4.44H10.7709ZM3.82688 4.44V15H2.11488V4.44H3.82688ZM9.90688 8.92V10.392H2.97888V8.92H9.90688ZM17.0188 6.84C17.7974 6.84 18.4854 7.00533 19.0828 7.336C19.6801 7.66667 20.1441 8.14667 20.4748 8.776C20.8161 9.39467 20.9868 10.136 20.9868 11C20.9868 11.864 20.8161 12.6107 20.4748 13.24C20.1441 13.8587 19.6801 14.3333 19.0828 14.664C18.4854 14.9947 17.7974 15.16 17.0188 15.16C16.2401 15.16 15.5521 14.9947 14.9548 14.664C14.3574 14.3333 13.8881 13.8587 13.5468 13.24C13.2054 12.6107 13.0348 11.864 13.0348 11C13.0348 10.136 13.2054 9.39467 13.5468 8.776C13.8881 8.14667 14.3574 7.66667 14.9548 7.336C15.5521 7.00533 16.2401 6.84 17.0188 6.84ZM17.0188 8.184C16.5388 8.184 16.1281 8.296 15.7868 8.52C15.4561 8.73333 15.2001 9.048 15.0188 9.464C14.8374 9.88 14.7468 10.392 14.7468 11C14.7468 11.5973 14.8374 12.1093 15.0188 12.536C15.2001 12.952 15.4561 13.272 15.7868 13.496C16.1281 13.7093 16.5388 13.816 17.0188 13.816C17.4988 13.816 17.9041 13.7093 18.2348 13.496C18.5654 13.272 18.8214 12.952 19.0028 12.536C19.1841 12.1093 19.2748 11.5973 19.2748 11C19.2748 10.392 19.1841 9.88 19.0028 9.464C18.8214 9.048 18.5654 8.73333 18.2348 8.52C17.9041 8.296 17.4988 8.184 17.0188 8.184ZM33.0821 7H34.9381L32.2501 15H30.3781L28.3621 9.064L26.4581 15H24.5861L21.9141 7H23.7541L25.5781 13.32L27.5621 7H29.2741L31.2581 13.32L33.0821 7ZM42.3014 5.656C41.928 5.656 41.64 5.56533 41.4374 5.384C41.2454 5.192 41.1494 4.92533 41.1494 4.584C41.1494 4.24267 41.2454 3.98133 41.4374 3.8C41.64 3.61867 41.928 3.528 42.3014 3.528C42.664 3.528 42.9414 3.61867 43.1334 3.8C43.336 3.98133 43.4374 4.24267 43.4374 4.584C43.4374 4.92533 43.336 5.192 43.1334 5.384C42.9414 5.56533 42.664 5.656 42.3014 5.656ZM43.1494 7V15H41.4374V7H43.1494ZM48.164 4.648V12.6C48.164 12.9947 48.2653 13.2827 48.468 13.464C48.6813 13.6453 48.964 13.736 49.316 13.736C49.604 13.736 49.8547 13.6933 50.068 13.608C50.2813 13.512 50.4787 13.384 50.66 13.224L51.044 14.472C50.7987 14.6853 50.4947 14.856 50.132 14.984C49.78 15.1013 49.3853 15.16 48.948 15.16C48.4893 15.16 48.068 15.0853 47.684 14.936C47.3 14.7867 47.0013 14.5467 46.788 14.216C46.5747 13.8747 46.4627 13.432 46.452 12.888V5.128L48.164 4.648ZM50.916 7V8.344H44.916V7H50.916ZM67.629 7H69.485L66.797 15H64.925L62.909 9.064L61.005 15H59.133L56.461 7H58.301L60.125 13.32L62.109 7H63.821L65.805 13.32L67.629 7ZM74.3781 6.84C75.1568 6.84 75.8448 7.00533 76.4421 7.336C77.0395 7.66667 77.5035 8.14667 77.8341 8.776C78.1755 9.39467 78.3461 10.136 78.3461 11C78.3461 11.864 78.1755 12.6107 77.8341 13.24C77.5035 13.8587 77.0395 14.3333 76.4421 14.664C75.8448 14.9947 75.1568 15.16 74.3781 15.16C73.5995 15.16 72.9115 14.9947 72.3141 14.664C71.7168 14.3333 71.2475 13.8587 70.9061 13.24C70.5648 12.6107 70.3941 11.864 70.3941 11C70.3941 10.136 70.5648 9.39467 70.9061 8.776C71.2475 8.14667 71.7168 7.66667 72.3141 7.336C72.9115 7.00533 73.5995 6.84 74.3781 6.84ZM74.3781 8.184C73.8981 8.184 73.4875 8.296 73.1461 8.52C72.8155 8.73333 72.5595 9.048 72.3781 9.464C72.1968 9.88 72.1061 10.392 72.1061 11C72.1061 11.5973 72.1968 12.1093 72.3781 12.536C72.5595 12.952 72.8155 13.272 73.1461 13.496C73.4875 13.7093 73.8981 13.816 74.3781 13.816C74.8581 13.816 75.2635 13.7093 75.5941 13.496C75.9248 13.272 76.1808 12.952 76.3621 12.536C76.5435 12.1093 76.6341 11.5973 76.6341 11C76.6341 10.392 76.5435 9.88 76.3621 9.464C76.1808 9.048 75.9248 8.73333 75.5941 8.52C75.2635 8.296 74.8581 8.184 74.3781 8.184ZM80.4999 15V7H81.9559L82.1159 8.44C82.3292 7.91733 82.6439 7.52267 83.0599 7.256C83.4865 6.97867 84.0092 6.84 84.6279 6.84C84.7879 6.84 84.9479 6.856 85.1079 6.888C85.2679 6.90933 85.4012 6.94667 85.5079 7L85.2679 8.504C85.1505 8.46133 85.0172 8.42933 84.8679 8.408C84.7292 8.376 84.5372 8.36 84.2919 8.36C83.9612 8.36 83.6359 8.45067 83.3159 8.632C82.9959 8.80267 82.7292 9.064 82.5159 9.416C82.3132 9.768 82.2119 10.216 82.2119 10.76V15H80.4999ZM94.6769 7L91.1089 10.648L90.7409 10.904L88.2289 13.512L88.2129 11.56L92.6449 7H94.6769ZM88.8369 3.4V15H87.1249V3.4H88.8369ZM91.3169 9.688L94.8689 15H92.8849L90.0369 10.664L91.3169 9.688ZM99.3524 15.16C98.5524 15.16 97.8217 15.0053 97.1604 14.696C96.499 14.3867 95.9764 13.9493 95.5924 13.384L96.7764 12.36C97.011 12.7973 97.347 13.1493 97.7844 13.416C98.2324 13.672 98.7657 13.8 99.3844 13.8C99.875 13.8 100.264 13.7147 100.552 13.544C100.84 13.3733 100.984 13.1333 100.984 12.824C100.984 12.6213 100.915 12.4453 100.776 12.296C100.648 12.136 100.398 12.0133 100.024 11.928L98.3444 11.576C97.491 11.4053 96.883 11.1333 96.5204 10.76C96.1577 10.376 95.9764 9.89067 95.9764 9.304C95.9764 8.86667 96.1044 8.46133 96.3604 8.088C96.6164 7.71467 96.9897 7.416 97.4804 7.192C97.9817 6.95733 98.579 6.84 99.2724 6.84C100.072 6.84 100.755 6.984 101.32 7.272C101.886 7.54933 102.318 7.94933 102.616 8.472L101.432 9.464C101.23 9.03733 100.931 8.72267 100.536 8.52C100.142 8.30667 99.731 8.2 99.3044 8.2C98.963 8.2 98.6697 8.24267 98.4244 8.328C98.179 8.41333 97.9924 8.53067 97.8644 8.68C97.7364 8.82933 97.6724 9.00533 97.6724 9.208C97.6724 9.42133 97.7524 9.608 97.9124 9.768C98.0724 9.928 98.3604 10.0507 98.7764 10.136L100.6 10.52C101.368 10.6693 101.907 10.9253 102.216 11.288C102.536 11.64 102.696 12.072 102.696 12.584C102.696 13.096 102.563 13.5493 102.296 13.944C102.03 14.328 101.646 14.6267 101.144 14.84C100.643 15.0533 100.046 15.16 99.3524 15.16Z" fill="#101828"/>
<path d="M111 10.6916L130.306 10.6916L123 16L123.799 17.0452L133 10L123.799 3L123 4L130.306 9.30835L111 9.30835L111 10.6916Z" fill="#101828"/>
</svg>
